<svg xmlns="http://www.w3.org/2000/svg" viewBox="300 0 1000 1000">
  <rect x="300" y="0" width="1000" height="1000" fill="#F472B6" />
  <path fill="#ffffff" fill-rule="evenodd" d="
    M 1066.00 231.00 C 1019.68 269.55 954.66 280.13 901.22 302.22 C 847.79 324.32 799.64 362.43 782.00 419.00 C 808.53 372.32 848.22 336.84 897.77 315.77 C 947.32 294.70 1005.68 281.85 1052.00 252.00 C 1030.62 331.29 955.94 386.59 880.00 408.00 C 971.11 400.58 1055.28 323.90 1066.00 231.00 Z
    M 962.00 315.00 C 878.06 362.09 801.54 422.15 737.75 497.75 C 673.97 573.35 624.41 661.33 585.00 751.00 C 601.91 733.40 628.34 724.93 637.70 701.69 C 647.05 678.46 651.97 648.87 665.25 627.25 C 678.52 605.62 688.95 584.56 703.08 564.08 C 717.22 543.60 730.98 524.58 746.23 505.23 C 761.48 485.88 776.69 468.08 793.70 450.70 C 810.71 433.31 826.73 416.84 845.25 401.25 C 863.76 385.66 882.86 370.47 902.25 356.25 C 921.65 342.04 943.43 328.79 962.00 315.00 Z
    M 809.00 354.00 C 747.41 392.64 694.92 458.84 697.00 533.00 C 706.53 480.97 732.78 430.90 773.00 395.00 C 763.61 412.83 759.31 434.72 761.00 454.00 C 769.07 417.64 786.15 383.54 809.00 354.00 Z
    M 981.00 382.00 C 940.94 403.75 896.44 416.35 851.00 420.00 C 882.90 425.17 915.98 420.64 945.00 409.00 C 920.87 437.25 893.38 455.75 861.23 473.23 C 829.07 490.71 787.22 496.71 756.00 516.00 C 799.12 503.13 851.99 494.30 890.30 470.30 C 928.61 446.30 954.36 417.44 981.00 382.00 Z
    M 698.00 473.00 C 684.67 487.83 677.85 504.74 671.32 524.32 C 664.79 543.91 668.30 570.38 662.00 590.00 C 674.28 568.94 671.55 541.64 681.00 519.00 C 682.58 527.77 684.50 537.43 688.00 546.00 C 689.60 521.73 688.99 495.70 698.00 473.00 Z
    M 872.00 489.00 C 842.34 503.06 809.58 509.35 778.00 516.00 C 791.97 520.61 809.02 517.39 823.00 514.00 C 793.45 534.52 756.82 539.86 724.00 553.00 C 777.63 549.70 833.50 528.82 872.00 489.00 Z
    M 823.00 538.00 C 790.68 549.68 756.39 556.32 722.00 559.00 C 740.48 563.68 761.19 560.76 779.00 560.00 C 745.94 576.89 702.98 577.88 679.00 610.00 C 700.66 591.92 729.88 586.28 755.78 578.78 C 781.68 571.27 802.82 555.58 823.00 538.00 Z
    M 619.00 717.00 C 633.82 710.71 638.00 689.71 639.00 676.00 C 632.86 689.87 625.81 703.49 619.00 717.00 Z
    M 759.00 731.00 C 780.04 734.27 798.27 739.38 820.00 739.00 C 841.73 738.62 866.68 740.33 887.78 735.78 C 908.88 731.23 921.17 730.82 940.77 718.77 C 960.37 706.72 943.77 687.41 924.22 684.78 C 904.68 682.14 883.21 677.67 862.74 679.60 C 842.28 681.53 820.54 682.45 801.00 687.00 C 781.47 691.55 763.22 694.69 745.07 701.07 C 726.93 707.45 710.42 712.86 693.23 720.23 C 676.04 727.60 661.33 734.08 644.22 741.22 C 627.11 748.37 610.96 755.57 593.07 761.07 C 575.19 766.57 555.94 772.94 537.00 775.00 C 551.19 777.10 568.47 772.71 582.33 769.33 C 596.19 765.94 609.69 761.68 622.78 756.78 C 635.86 751.87 648.24 747.36 660.92 741.92 C 673.61 736.49 684.96 731.88 697.77 726.77 C 710.59 721.67 722.63 716.32 735.98 711.98 C 749.32 707.64 762.82 703.14 776.78 699.78 C 790.73 696.42 804.47 692.42 819.00 690.00 C 833.53 687.58 852.44 686.85 867.00 685.00 C 881.56 683.15 903.42 688.19 915.93 689.07 C 928.44 689.96 948.68 701.29 937.75 711.75 C 926.81 722.20 913.96 721.69 900.22 726.22 C 886.48 730.75 870.25 732.30 855.00 734.00 C 839.75 735.70 819.10 734.56 803.67 734.33 C 788.24 734.10 773.63 730.55 759.00 731.00 Z
  "/>
</svg>